<svg id="图层_1" xmlns="http://www.w3.org/2000/svg" viewBox="0 0 423.7 433.9" width="92" height="87"><style>.st0{fill:#e60013}</style><path d="M98.5 352.9v-14s-1.6-7.4-8.7-7.4H13.2s-7.8.6-7.8 8.1v35.2s.2 7.4 9.1 7.4h55.1v9.6H5.4v14.6s1 7.3 7.8 7.3h77.6s7.7-.9 7.7-8.9v-34.1s-1-8.4-9.5-8.4H34V353l64.5-.1z"/><path class="st0" d="M168.7 360.6h-20.3v23.5h20.3c1.4 0 2.5-1.1 2.5-2.5v-18.5c0-1.4-1.2-2.5-2.5-2.5z"/><path d="M177.3 331.5h-65.2v82.2h67.1s27.9-1.6 27.9-30.6V359s-2.2-27.5-29.8-27.5zm1.4 50.7c0 7.3-7.6 9.3-7.6 9.3h-30.3V353h28c8.3 0 9.9 8.8 9.9 8.8v20.4zm69.7 9.3v-59.9h-21.2c-4.1 0-7.5 3.3-7.5 7.5v67.2c0 4.1 3.4 7.5 7.5 7.5h75.1c4.1 0 7.5-3.3 7.5-7.5v-14.7h-61.4zm120.7-29.2V382h16.8v9.5H348v-38.6h66.4v-14.1c0-4.1-3.3-7.5-7.5-7.5h-79.7c-4.1 0-7.5 3.3-7.5 7.5v67.4c0 4.1 3.3 7.5 7.5 7.5h79.7c4.1 0 7.5-3.3 7.5-7.5v-43.9h-45.3z"/><path class="st0" d="M214.5 10.4l197.9 317.1-197.9-93.8z"/><path d="M205.1 10.4L8.1 327.5l197-93.8z"/></svg>